# Blender v2.82 (sub 7) OBJ File: ''
# www.blender.org
mtllib Player.mtl
o Cylinder
v 0.000000 0.000000 -0.226745
v 0.000000 2.872253 -1.000000
v 0.044236 0.000000 -0.222388
v 0.195090 2.872253 -0.980785
v 0.086771 0.000000 -0.209485
v 0.382683 2.872253 -0.923880
v 0.125973 0.000000 -0.188531
v 0.555570 2.872253 -0.831470
v 0.160333 0.000000 -0.160333
v 0.707107 2.872253 -0.707107
v 0.188531 0.000000 -0.125973
v 0.831470 2.872253 -0.555570
v 0.209485 0.000000 -0.086772
v 0.923880 2.872253 -0.382683
v 0.222388 0.000000 -0.044236
v 0.980785 2.872253 -0.195090
v 0.226744 0.000000 -0.000000
v 1.000000 2.872253 -0.000000
v 0.222388 0.000000 0.044235
v 0.980785 2.872253 0.195090
v 0.209485 0.000000 0.086771
v 0.923880 2.872253 0.382683
v 0.188531 0.000000 0.125972
v 0.831470 2.872253 0.555570
v 0.160333 0.000000 0.160332
v 0.707107 2.872253 0.707107
v 0.125972 0.000000 0.188531
v 0.555570 2.872253 0.831470
v 0.086771 0.000000 0.209484
v 0.382683 2.872253 0.923880
v 0.044236 0.000000 0.222387
v 0.195090 2.872253 0.980785
v 0.000000 0.000000 0.226744
v -0.000000 2.872253 1.000000
v -0.044236 0.000000 0.222387
v -0.195091 2.872253 0.980785
v -0.086771 0.000000 0.209484
v -0.382684 2.872253 0.923879
v -0.125972 0.000000 0.188531
v -0.555571 2.872253 0.831469
v -0.160332 0.000000 0.160332
v -0.707107 2.872253 0.707106
v -0.188531 0.000000 0.125972
v -0.831470 2.872253 0.555570
v -0.209484 0.000000 0.086771
v -0.923880 2.872253 0.382683
v -0.222387 0.000000 0.044235
v -0.980785 2.872253 0.195089
v -0.226744 0.000000 -0.000000
v -1.000000 2.872253 -0.000001
v -0.222387 0.000000 -0.044236
v -0.980785 2.872253 -0.195091
v -0.209484 0.000000 -0.086772
v -0.923879 2.872253 -0.382684
v -0.188531 0.000000 -0.125973
v -0.831469 2.872253 -0.555571
v -0.160332 0.000000 -0.160333
v -0.707106 2.872253 -0.707108
v -0.125972 0.000000 -0.188531
v -0.555569 2.872253 -0.831470
v -0.086771 0.000000 -0.209485
v -0.382682 2.872253 -0.923880
v -0.044235 0.000000 -0.222388
v -0.195089 2.872253 -0.980786
v 0.114257 3.561536 -0.574407
v -0.000000 3.561536 -0.585661
v 0.224123 3.561536 -0.541080
v 0.325376 3.561536 -0.486959
v 0.414124 3.561536 -0.414125
v 0.486959 3.561536 -0.325376
v 0.541080 3.561536 -0.224123
v 0.574407 3.561536 -0.114257
v 0.585660 3.561536 -0.000000
v 0.574407 3.561536 0.114257
v 0.541080 3.561536 0.224122
v 0.486959 3.561536 0.325375
v 0.414124 3.561536 0.414124
v 0.325375 3.561536 0.486959
v 0.224122 3.561536 0.541080
v 0.114257 3.561536 0.574407
v -0.000000 3.561536 0.585660
v -0.114257 3.561536 0.574407
v -0.224123 3.561536 0.541079
v -0.325376 3.561536 0.486959
v -0.414125 3.561536 0.414124
v -0.486959 3.561536 0.325375
v -0.541080 3.561536 0.224122
v -0.574407 3.561536 0.114256
v -0.585661 3.561536 -0.000001
v -0.574407 3.561536 -0.114257
v -0.541079 3.561536 -0.224123
v -0.486958 3.561536 -0.325376
v -0.414124 3.561536 -0.414125
v -0.325375 3.561536 -0.486959
v -0.224122 3.561536 -0.541080
v -0.114256 3.561536 -0.574407
v 0.195090 4.415885 -0.980785
v 0.000000 4.415885 -1.000000
v 0.382683 4.415885 -0.923880
v 0.555570 4.415885 -0.831470
v 0.707107 4.415885 -0.707107
v 0.831470 4.415885 -0.555570
v 0.923880 4.415885 -0.382683
v 0.980785 4.415885 -0.195090
v 1.000000 4.415885 -0.000000
v 0.980785 4.415885 0.195090
v 0.923880 4.415885 0.382683
v 0.831470 4.415885 0.555570
v 0.707107 4.415885 0.707107
v 0.555570 4.415885 0.831470
v 0.382683 4.415885 0.923880
v 0.195090 4.415885 0.980785
v -0.000000 4.415885 1.000000
v -0.195091 4.415885 0.980785
v -0.382684 4.415885 0.923879
v -0.555571 4.415885 0.831469
v -0.707107 4.415885 0.707106
v -0.831470 4.415885 0.555570
v -0.923880 4.415885 0.382683
v -0.980785 4.415885 0.195089
v -1.000000 4.415885 -0.000001
v -0.980785 4.415885 -0.195091
v -0.923879 4.415885 -0.382684
v -0.831469 4.415885 -0.555571
v -0.707106 4.415885 -0.707108
v -0.555569 4.415885 -0.831470
v -0.382682 4.415885 -0.923880
v -0.195089 4.415885 -0.980786
v 0.030261 5.267518 -0.152131
v 0.000000 5.267518 -0.155111
v 0.059359 5.267518 -0.143304
v 0.086175 5.267518 -0.128970
v 0.109680 5.267518 -0.109680
v 0.128970 5.267518 -0.086175
v 0.143304 5.267518 -0.059359
v 0.152131 5.267518 -0.030261
v 0.155111 5.267518 -0.000000
v 0.152131 5.267518 0.030260
v 0.143304 5.267518 0.059358
v 0.128970 5.267518 0.086175
v 0.109680 5.267518 0.109680
v 0.086175 5.267518 0.128970
v 0.059358 5.267518 0.143304
v 0.030261 5.267518 0.152130
v 0.000000 5.267518 0.155111
v -0.030261 5.267518 0.152130
v -0.059358 5.267518 0.143304
v -0.086175 5.267518 0.128970
v -0.109680 5.267518 0.109680
v -0.128970 5.267518 0.086175
v -0.143304 5.267518 0.059358
v -0.152130 5.267518 0.030260
v -0.155111 5.267518 -0.000000
v -0.152130 5.267518 -0.030261
v -0.143304 5.267518 -0.059359
v -0.128970 5.267518 -0.086175
v -0.109680 5.267518 -0.109680
v -0.086175 5.267518 -0.128970
v -0.059358 5.267518 -0.143304
v -0.030260 5.267518 -0.152131
v 0.000000 0.595656 -1.000000
v 0.195090 0.595656 -0.980785
v 0.382683 0.595656 -0.923880
v 0.555570 0.595656 -0.831470
v 0.707107 0.595656 -0.707107
v 0.831470 0.595656 -0.555570
v 0.923880 0.595656 -0.382683
v 0.980785 0.595656 -0.195090
v 1.000000 0.595656 -0.000000
v 0.980785 0.595656 0.195090
v 0.923880 0.595656 0.382683
v 0.831470 0.595656 0.555570
v 0.707107 0.595656 0.707107
v 0.555570 0.595656 0.831470
v 0.382683 0.595656 0.923880
v 0.195090 0.595656 0.980785
v -0.000000 0.595656 1.000000
v -0.195091 0.595656 0.980785
v -0.382684 0.595656 0.923879
v -0.555571 0.595656 0.831469
v -0.707107 0.595656 0.707106
v -0.831470 0.595656 0.555570
v -0.923880 0.595656 0.382683
v -0.980785 0.595656 0.195089
v -1.000000 0.595656 -0.000001
v -0.980785 0.595656 -0.195091
v -0.923879 0.595656 -0.382684
v -0.831469 0.595656 -0.555571
v -0.707106 0.595656 -0.707108
v -0.555569 0.595656 -0.831470
v -0.382682 0.595656 -0.923880
v -0.195089 0.595656 -0.980786
vt 1.000000 0.603691
vt 1.000000 1.000000
vt 0.968750 1.000000
vt 0.968750 0.603691
vt 0.937500 1.000000
vt 0.937500 0.603691
vt 0.906250 1.000000
vt 0.906250 0.603691
vt 0.875000 1.000000
vt 0.875000 0.603691
vt 0.843750 1.000000
vt 0.843750 0.603691
vt 0.812500 1.000000
vt 0.812500 0.603691
vt 0.781250 1.000000
vt 0.781250 0.603691
vt 0.750000 1.000000
vt 0.750000 0.603691
vt 0.718750 1.000000
vt 0.718750 0.603691
vt 0.687500 1.000000
vt 0.687500 0.603691
vt 0.656250 1.000000
vt 0.656250 0.603691
vt 0.625000 1.000000
vt 0.625000 0.603691
vt 0.593750 1.000000
vt 0.593750 0.603691
vt 0.562500 1.000000
vt 0.562500 0.603691
vt 0.531250 1.000000
vt 0.531250 0.603691
vt 0.500000 1.000000
vt 0.500000 0.603691
vt 0.468750 1.000000
vt 0.468750 0.603691
vt 0.437500 1.000000
vt 0.437500 0.603691
vt 0.406250 1.000000
vt 0.406250 0.603691
vt 0.375000 1.000000
vt 0.375000 0.603691
vt 0.343750 1.000000
vt 0.343750 0.603691
vt 0.312500 1.000000
vt 0.312500 0.603691
vt 0.281250 1.000000
vt 0.281250 0.603691
vt 0.250000 1.000000
vt 0.250000 0.603691
vt 0.218750 1.000000
vt 0.218750 0.603691
vt 0.187500 1.000000
vt 0.187500 0.603691
vt 0.156250 1.000000
vt 0.156250 0.603691
vt 0.125000 1.000000
vt 0.125000 0.603691
vt 0.093750 1.000000
vt 0.093750 0.603691
vt 0.062500 1.000000
vt 0.062500 0.603691
vt 0.937500 1.000000
vt 0.906250 1.000000
vt 0.031250 1.000000
vt 0.031250 0.603691
vt 0.000000 1.000000
vt 0.000000 0.603691
vt 0.750000 0.490000
vt 0.796822 0.485388
vt 0.841844 0.471731
vt 0.883337 0.449553
vt 0.919706 0.419706
vt 0.949553 0.383337
vt 0.971731 0.341844
vt 0.985388 0.296822
vt 0.990000 0.250000
vt 0.985388 0.203178
vt 0.971731 0.158156
vt 0.949553 0.116663
vt 0.919706 0.080294
vt 0.883337 0.050447
vt 0.841844 0.028269
vt 0.796822 0.014612
vt 0.750000 0.010000
vt 0.703178 0.014612
vt 0.658156 0.028269
vt 0.616663 0.050447
vt 0.580294 0.080294
vt 0.550447 0.116663
vt 0.528269 0.158156
vt 0.514611 0.203179
vt 0.510000 0.250000
vt 0.514612 0.296822
vt 0.528269 0.341844
vt 0.550447 0.383337
vt 0.580295 0.419706
vt 0.616663 0.449553
vt 0.658156 0.471731
vt 0.703179 0.485389
vt 0.812500 1.000000
vt 0.843750 1.000000
vt 0.843750 1.000000
vt 0.812500 1.000000
vt 0.656250 1.000000
vt 0.625000 1.000000
vt 0.375000 1.000000
vt 0.343750 1.000000
vt 0.093750 1.000000
vt 0.062500 1.000000
vt 0.781250 1.000000
vt 0.750000 1.000000
vt 0.500000 1.000000
vt 0.468750 1.000000
vt 0.218750 1.000000
vt 0.187500 1.000000
vt 0.875000 1.000000
vt 0.593750 1.000000
vt 0.312500 1.000000
vt 0.031250 1.000000
vt 0.718750 1.000000
vt 0.437500 1.000000
vt 0.156250 1.000000
vt 0.562500 1.000000
vt 0.281250 1.000000
vt 1.000000 1.000000
vt 0.968750 1.000000
vt 0.000000 1.000000
vt 0.687500 1.000000
vt 0.406250 1.000000
vt 0.125000 1.000000
vt 0.531250 1.000000
vt 0.250000 1.000000
vt 0.718750 1.000000
vt 0.750000 1.000000
vt 0.750000 1.000000
vt 0.718750 1.000000
vt 0.406250 1.000000
vt 0.375000 1.000000
vt 0.781250 1.000000
vt 0.343750 1.000000
vt 0.312500 1.000000
vt 0.281250 1.000000
vt 0.687500 1.000000
vt 0.250000 1.000000
vt 0.656250 1.000000
vt 0.218750 1.000000
vt 0.625000 1.000000
vt 0.187500 1.000000
vt 0.593750 1.000000
vt 0.156250 1.000000
vt 0.562500 1.000000
vt 1.000000 1.000000
vt 0.968750 1.000000
vt 0.125000 1.000000
vt 0.531250 1.000000
vt 0.937500 1.000000
vt 0.093750 1.000000
vt 0.500000 1.000000
vt 0.906250 1.000000
vt 0.062500 1.000000
vt 0.468750 1.000000
vt 0.875000 1.000000
vt 0.031250 1.000000
vt 0.437500 1.000000
vt 0.000000 1.000000
vt 0.296822 0.485388
vt 0.250000 0.490000
vt 0.203179 0.485389
vt 0.158156 0.471731
vt 0.116663 0.449553
vt 0.080295 0.419706
vt 0.050447 0.383337
vt 0.028269 0.341844
vt 0.014612 0.296822
vt 0.010000 0.250000
vt 0.014611 0.203179
vt 0.028269 0.158156
vt 0.050447 0.116663
vt 0.080294 0.080294
vt 0.116663 0.050447
vt 0.158156 0.028269
vt 0.203178 0.014612
vt 0.250000 0.010000
vt 0.296822 0.014612
vt 0.341844 0.028269
vt 0.383337 0.050447
vt 0.419706 0.080294
vt 0.449553 0.116663
vt 0.471731 0.158156
vt 0.485388 0.203178
vt 0.490000 0.250000
vt 0.485388 0.296822
vt 0.471731 0.341844
vt 0.449553 0.383337
vt 0.419706 0.419706
vt 0.383337 0.449553
vt 0.341844 0.471731
vt 0.312500 1.000000
vt 0.281250 1.000000
vt 0.687500 1.000000
vt 0.250000 1.000000
vt 0.656250 1.000000
vt 0.218750 1.000000
vt 0.625000 1.000000
vt 0.187500 1.000000
vt 0.593750 1.000000
vt 0.156250 1.000000
vt 0.562500 1.000000
vt 1.000000 1.000000
vt 0.968750 1.000000
vt 0.125000 1.000000
vt 0.531250 1.000000
vt 0.937500 1.000000
vt 0.093750 1.000000
vt 0.500000 1.000000
vt 0.906250 1.000000
vt 0.062500 1.000000
vt 0.468750 1.000000
vt 0.875000 1.000000
vt 0.031250 1.000000
vt 0.437500 1.000000
vt 0.843750 1.000000
vt 0.000000 1.000000
vt 0.406250 1.000000
vt 0.812500 1.000000
vt 0.375000 1.000000
vt 0.781250 1.000000
vt 0.343750 1.000000
vt 0.031250 0.500000
vt 0.000000 0.500000
vt 0.062500 0.500000
vt 0.093750 0.500000
vt 0.125000 0.500000
vt 0.156250 0.500000
vt 0.187500 0.500000
vt 0.218750 0.500000
vt 0.250000 0.500000
vt 0.281250 0.500000
vt 0.312500 0.500000
vt 0.343750 0.500000
vt 0.375000 0.500000
vt 0.406250 0.500000
vt 0.437500 0.500000
vt 0.468750 0.500000
vt 0.500000 0.500000
vt 0.531250 0.500000
vt 0.562500 0.500000
vt 0.593750 0.500000
vt 0.625000 0.500000
vt 0.656250 0.500000
vt 0.687500 0.500000
vt 0.718750 0.500000
vt 0.750000 0.500000
vt 0.781250 0.500000
vt 0.812500 0.500000
vt 0.843750 0.500000
vt 0.875000 0.500000
vt 0.906250 0.500000
vt 0.937500 0.500000
vt 0.968750 0.500000
vt 1.000000 0.500000
vn 0.0980 0.0000 -0.9952
vn 0.2903 0.0000 -0.9569
vn 0.4714 0.0000 -0.8819
vn 0.6344 0.0000 -0.7730
vn 0.7730 0.0000 -0.6344
vn 0.8819 0.0000 -0.4714
vn 0.9569 0.0000 -0.2903
vn 0.9952 0.0000 -0.0980
vn 0.9952 0.0000 0.0980
vn 0.9569 0.0000 0.2903
vn 0.8819 0.0000 0.4714
vn 0.7730 0.0000 0.6344
vn 0.6344 0.0000 0.7730
vn 0.4714 0.0000 0.8819
vn 0.2903 0.0000 0.9569
vn 0.0980 0.0000 0.9952
vn -0.0980 0.0000 0.9952
vn -0.2903 0.0000 0.9569
vn -0.4714 0.0000 0.8819
vn -0.6344 0.0000 0.7730
vn -0.7730 0.0000 0.6344
vn -0.8819 0.0000 0.4714
vn -0.9569 0.0000 0.2903
vn -0.9952 0.0000 0.0980
vn -0.9952 0.0000 -0.0980
vn -0.9569 0.0000 -0.2903
vn -0.8819 0.0000 -0.4714
vn -0.7730 0.0000 -0.6344
vn -0.6344 0.0000 -0.7730
vn -0.4714 0.0000 -0.8819
vn 0.4045 0.5134 -0.7568
vn -0.2903 0.0000 -0.9569
vn -0.0980 0.0000 -0.9952
vn 0.0000 -1.0000 0.0000
vn 0.7943 -0.4347 -0.4245
vn 0.6634 0.5134 0.5444
vn -0.6634 0.5134 0.5444
vn -0.4045 0.5134 -0.7568
vn 0.8540 0.5134 -0.0841
vn -0.0841 0.5134 0.8540
vn -0.8212 0.5134 -0.2491
vn 0.5444 0.5134 -0.6634
vn 0.5444 0.5134 0.6634
vn -0.7568 0.5134 0.4045
vn -0.2491 0.5134 -0.8212
vn 0.8540 0.5134 0.0841
vn -0.2491 0.5134 0.8212
vn -0.7568 0.5134 -0.4045
vn 0.6634 0.5134 -0.5444
vn 0.4045 0.5134 0.7568
vn -0.8212 0.5134 0.2491
vn 0.0841 0.5134 -0.8540
vn -0.0841 0.5134 -0.8540
vn 0.8212 0.5134 0.2491
vn -0.4045 0.5134 0.7568
vn -0.6634 0.5134 -0.5444
vn 0.7568 0.5134 -0.4045
vn 0.2491 0.5134 0.8212
vn -0.8540 0.5134 0.0841
vn 0.2491 0.5134 -0.8212
vn 0.7568 0.5134 0.4045
vn -0.5444 0.5134 0.6634
vn -0.5444 0.5134 -0.6634
vn 0.8212 0.5134 -0.2491
vn 0.0841 0.5134 0.8540
vn -0.8540 0.5134 -0.0841
vn 0.7082 0.7026 0.0697
vn -0.5713 -0.4347 0.6962
vn 0.8618 -0.4347 -0.2614
vn -0.6962 -0.4347 0.5713
vn 0.8963 -0.4347 -0.0883
vn -0.7943 -0.4347 0.4245
vn 0.8963 -0.4347 0.0883
vn -0.8618 -0.4347 0.2614
vn 0.8618 -0.4347 0.2614
vn -0.8963 -0.4347 0.0883
vn 0.7943 -0.4347 0.4245
vn -0.8963 -0.4347 -0.0883
vn 0.6962 -0.4347 0.5713
vn -0.8618 -0.4347 -0.2614
vn 0.5713 -0.4347 0.6962
vn -0.7943 -0.4347 -0.4245
vn 0.4245 -0.4347 0.7943
vn 0.0883 -0.4347 -0.8963
vn -0.6962 -0.4347 -0.5713
vn 0.2614 -0.4347 0.8618
vn 0.2614 -0.4347 -0.8618
vn -0.5713 -0.4347 -0.6962
vn 0.0883 -0.4347 0.8963
vn 0.4245 -0.4347 -0.7943
vn -0.4245 -0.4347 -0.7943
vn -0.0883 -0.4347 0.8963
vn 0.5713 -0.4347 -0.6962
vn -0.2614 -0.4347 -0.8618
vn -0.2614 -0.4347 0.8618
vn 0.6962 -0.4347 -0.5713
vn -0.0883 -0.4347 -0.8963
vn -0.4245 -0.4347 0.7943
vn 0.0000 1.0000 0.0000
vn -0.6810 0.7026 0.2066
vn 0.6810 0.7026 0.2066
vn -0.7082 0.7026 0.0697
vn 0.6276 0.7026 0.3355
vn -0.7082 0.7026 -0.0697
vn 0.5501 0.7026 0.4514
vn -0.6810 0.7026 -0.2066
vn 0.4514 0.7026 0.5501
vn -0.6276 0.7026 -0.3355
vn 0.3355 0.7026 0.6276
vn 0.0697 0.7026 -0.7082
vn -0.5501 0.7026 -0.4514
vn 0.2066 0.7026 0.6810
vn 0.2066 0.7026 -0.6810
vn -0.4514 0.7026 -0.5501
vn 0.0697 0.7026 0.7082
vn 0.3355 0.7026 -0.6276
vn -0.3354 0.7026 -0.6276
vn -0.0698 0.7026 0.7082
vn 0.4514 0.7026 -0.5501
vn -0.2066 0.7026 -0.6810
vn -0.2066 0.7026 0.6810
vn 0.5501 0.7026 -0.4514
vn -0.0697 0.7026 -0.7082
vn -0.3355 0.7026 0.6276
vn 0.6276 0.7026 -0.3354
vn -0.4514 0.7026 0.5501
vn 0.6810 0.7026 -0.2066
vn -0.5501 0.7026 0.4514
vn 0.7082 0.7026 -0.0697
vn -0.6276 0.7026 0.3354
vn -0.0600 -0.7908 -0.6092
vn -0.1777 -0.7908 -0.5857
vn -0.2885 -0.7908 -0.5398
vn -0.3883 -0.7908 -0.4732
vn -0.4732 -0.7908 -0.3883
vn -0.5398 -0.7908 -0.2885
vn -0.5857 -0.7908 -0.1777
vn -0.6092 -0.7908 -0.0600
vn -0.6092 -0.7908 0.0600
vn -0.5857 -0.7908 0.1777
vn -0.5398 -0.7908 0.2885
vn -0.4732 -0.7908 0.3883
vn -0.3883 -0.7908 0.4732
vn -0.2885 -0.7908 0.5398
vn -0.1777 -0.7908 0.5857
vn -0.0600 -0.7908 0.6092
vn 0.0600 -0.7908 0.6092
vn 0.1777 -0.7908 0.5857
vn 0.2885 -0.7908 0.5398
vn 0.3883 -0.7908 0.4732
vn 0.4732 -0.7908 0.3883
vn 0.5398 -0.7908 0.2885
vn 0.5857 -0.7908 0.1777
vn 0.6092 -0.7908 0.0600
vn 0.6092 -0.7908 -0.0600
vn 0.5857 -0.7908 -0.1777
vn 0.5398 -0.7908 -0.2885
vn 0.4732 -0.7908 -0.3883
vn 0.3883 -0.7908 -0.4732
vn 0.2885 -0.7908 -0.5398
vn 0.1777 -0.7908 -0.5857
vn 0.0600 -0.7908 -0.6092
usemtl None
s off
f 161/1/1 2/2/1 4/3/1 162/4/1
f 162/4/2 4/3/2 6/5/2 163/6/2
f 163/6/3 6/5/3 8/7/3 164/8/3
f 164/8/4 8/7/4 10/9/4 165/10/4
f 165/10/5 10/9/5 12/11/5 166/12/5
f 166/12/6 12/11/6 14/13/6 167/14/6
f 167/14/7 14/13/7 16/15/7 168/16/7
f 168/16/8 16/15/8 18/17/8 169/18/8
f 169/18/9 18/17/9 20/19/9 170/20/9
f 170/20/10 20/19/10 22/21/10 171/22/10
f 171/22/11 22/21/11 24/23/11 172/24/11
f 172/24/12 24/23/12 26/25/12 173/26/12
f 173/26/13 26/25/13 28/27/13 174/28/13
f 174/28/14 28/27/14 30/29/14 175/30/14
f 175/30/15 30/29/15 32/31/15 176/32/15
f 176/32/16 32/31/16 34/33/16 177/34/16
f 177/34/17 34/33/17 36/35/17 178/36/17
f 178/36/18 36/35/18 38/37/18 179/38/18
f 179/38/19 38/37/19 40/39/19 180/40/19
f 180/40/20 40/39/20 42/41/20 181/42/20
f 181/42/21 42/41/21 44/43/21 182/44/21
f 182/44/22 44/43/22 46/45/22 183/46/22
f 183/46/23 46/45/23 48/47/23 184/48/23
f 184/48/24 48/47/24 50/49/24 185/50/24
f 185/50/25 50/49/25 52/51/25 186/52/25
f 186/52/26 52/51/26 54/53/26 187/54/26
f 187/54/27 54/53/27 56/55/27 188/56/27
f 188/56/28 56/55/28 58/57/28 189/58/28
f 189/58/29 58/57/29 60/59/29 190/60/29
f 190/60/30 60/59/30 62/61/30 191/62/30
f 8/7/31 6/5/31 67/63/31 68/64/31
f 191/62/32 62/61/32 64/65/32 192/66/32
f 192/66/33 64/65/33 2/67/33 161/68/33
f 1/69/34 3/70/34 5/71/34 7/72/34 9/73/34 11/74/34 13/75/34 15/76/34 17/77/34 19/78/34 21/79/34 23/80/34 25/81/34 27/82/34 29/83/34 31/84/34 33/85/34 35/86/34 37/87/34 39/88/34 41/89/34 43/90/34 45/91/34 47/92/34 49/93/34 51/94/34 53/95/34 55/96/34 57/97/34 59/98/34 61/99/34 63/100/34
f 71/101/35 70/102/35 102/103/35 103/104/35
f 26/25/36 24/23/36 76/105/36 77/106/36
f 44/43/37 42/41/37 85/107/37 86/108/37
f 62/61/38 60/59/38 94/109/38 95/110/38
f 18/17/39 16/15/39 72/111/39 73/112/39
f 36/35/40 34/33/40 81/113/40 82/114/40
f 54/53/41 52/51/41 90/115/41 91/116/41
f 10/9/42 8/7/42 68/64/42 69/117/42
f 28/27/43 26/25/43 77/106/43 78/118/43
f 46/45/44 44/43/44 86/108/44 87/119/44
f 64/65/45 62/61/45 95/110/45 96/120/45
f 20/19/46 18/17/46 73/112/46 74/121/46
f 38/37/47 36/35/47 82/114/47 83/122/47
f 56/55/48 54/53/48 91/116/48 92/123/48
f 12/11/49 10/9/49 69/117/49 70/102/49
f 30/29/50 28/27/50 78/118/50 79/124/50
f 48/47/51 46/45/51 87/119/51 88/125/51
f 4/3/52 2/2/52 66/126/52 65/127/52
f 2/67/53 64/65/53 96/120/53 66/128/53
f 22/21/54 20/19/54 74/121/54 75/129/54
f 40/39/55 38/37/55 83/122/55 84/130/55
f 58/57/56 56/55/56 92/123/56 93/131/56
f 14/13/57 12/11/57 70/102/57 71/101/57
f 32/31/58 30/29/58 79/124/58 80/132/58
f 50/49/59 48/47/59 88/125/59 89/133/59
f 6/5/60 4/3/60 65/127/60 67/63/60
f 24/23/61 22/21/61 75/129/61 76/105/61
f 42/41/62 40/39/62 84/130/62 85/107/62
f 60/59/63 58/57/63 93/131/63 94/109/63
f 16/15/64 14/13/64 71/101/64 72/111/64
f 34/33/65 32/31/65 80/132/65 81/113/65
f 52/51/66 50/49/66 89/133/66 90/115/66
f 106/134/67 105/135/67 137/136/67 138/137/67
f 85/107/68 84/130/68 116/138/68 117/139/68
f 72/111/69 71/101/69 103/104/69 104/140/69
f 86/108/70 85/107/70 117/139/70 118/141/70
f 73/112/71 72/111/71 104/140/71 105/135/71
f 87/119/72 86/108/72 118/141/72 119/142/72
f 74/121/73 73/112/73 105/135/73 106/134/73
f 88/125/74 87/119/74 119/142/74 120/143/74
f 75/129/75 74/121/75 106/134/75 107/144/75
f 89/133/76 88/125/76 120/143/76 121/145/76
f 76/105/77 75/129/77 107/144/77 108/146/77
f 90/115/78 89/133/78 121/145/78 122/147/78
f 77/106/79 76/105/79 108/146/79 109/148/79
f 91/116/80 90/115/80 122/147/80 123/149/80
f 78/118/81 77/106/81 109/148/81 110/150/81
f 92/123/82 91/116/82 123/149/82 124/151/82
f 79/124/83 78/118/83 110/150/83 111/152/83
f 65/127/84 66/126/84 98/153/84 97/154/84
f 93/131/85 92/123/85 124/151/85 125/155/85
f 80/132/86 79/124/86 111/152/86 112/156/86
f 67/63/87 65/127/87 97/154/87 99/157/87
f 94/109/88 93/131/88 125/155/88 126/158/88
f 81/113/89 80/132/89 112/156/89 113/159/89
f 68/64/90 67/63/90 99/157/90 100/160/90
f 95/110/91 94/109/91 126/158/91 127/161/91
f 82/114/92 81/113/92 113/159/92 114/162/92
f 69/117/93 68/64/93 100/160/93 101/163/93
f 96/120/94 95/110/94 127/161/94 128/164/94
f 83/122/95 82/114/95 114/162/95 115/165/95
f 70/102/96 69/117/96 101/163/96 102/103/96
f 66/128/97 96/120/97 128/164/97 98/166/97
f 84/130/98 83/122/98 115/165/98 116/138/98
f 129/167/99 130/168/99 160/169/99 159/170/99 158/171/99 157/172/99 156/173/99 155/174/99 154/175/99 153/176/99 152/177/99 151/178/99 150/179/99 149/180/99 148/181/99 147/182/99 146/183/99 145/184/99 144/185/99 143/186/99 142/187/99 141/188/99 140/189/99 139/190/99 138/191/99 137/192/99 136/193/99 135/194/99 134/195/99 133/196/99 132/197/99 131/198/99
f 120/143/100 119/142/100 151/199/100 152/200/100
f 107/144/101 106/134/101 138/137/101 139/201/101
f 121/145/102 120/143/102 152/200/102 153/202/102
f 108/146/103 107/144/103 139/201/103 140/203/103
f 122/147/104 121/145/104 153/202/104 154/204/104
f 109/148/105 108/146/105 140/203/105 141/205/105
f 123/149/106 122/147/106 154/204/106 155/206/106
f 110/150/107 109/148/107 141/205/107 142/207/107
f 124/151/108 123/149/108 155/206/108 156/208/108
f 111/152/109 110/150/109 142/207/109 143/209/109
f 97/154/110 98/153/110 130/210/110 129/211/110
f 125/155/111 124/151/111 156/208/111 157/212/111
f 112/156/112 111/152/112 143/209/112 144/213/112
f 99/157/113 97/154/113 129/211/113 131/214/113
f 126/158/114 125/155/114 157/212/114 158/215/114
f 113/159/115 112/156/115 144/213/115 145/216/115
f 100/160/116 99/157/116 131/214/116 132/217/116
f 127/161/117 126/158/117 158/215/117 159/218/117
f 114/162/118 113/159/118 145/216/118 146/219/118
f 101/163/119 100/160/119 132/217/119 133/220/119
f 128/164/120 127/161/120 159/218/120 160/221/120
f 115/165/121 114/162/121 146/219/121 147/222/121
f 102/103/122 101/163/122 133/220/122 134/223/122
f 98/166/123 128/164/123 160/221/123 130/224/123
f 116/138/124 115/165/124 147/222/124 148/225/124
f 103/104/125 102/103/125 134/223/125 135/226/125
f 117/139/126 116/138/126 148/225/126 149/227/126
f 104/140/127 103/104/127 135/226/127 136/228/127
f 118/141/128 117/139/128 149/227/128 150/229/128
f 105/135/129 104/140/129 136/228/129 137/136/129
f 119/142/130 118/141/130 150/229/130 151/199/130
f 63/230/131 192/66/131 161/68/131 1/231/131
f 61/232/132 191/62/132 192/66/132 63/230/132
f 59/233/133 190/60/133 191/62/133 61/232/133
f 57/234/134 189/58/134 190/60/134 59/233/134
f 55/235/135 188/56/135 189/58/135 57/234/135
f 53/236/136 187/54/136 188/56/136 55/235/136
f 51/237/137 186/52/137 187/54/137 53/236/137
f 49/238/138 185/50/138 186/52/138 51/237/138
f 47/239/139 184/48/139 185/50/139 49/238/139
f 45/240/140 183/46/140 184/48/140 47/239/140
f 43/241/141 182/44/141 183/46/141 45/240/141
f 41/242/142 181/42/142 182/44/142 43/241/142
f 39/243/143 180/40/143 181/42/143 41/242/143
f 37/244/144 179/38/144 180/40/144 39/243/144
f 35/245/145 178/36/145 179/38/145 37/244/145
f 33/246/146 177/34/146 178/36/146 35/245/146
f 31/247/147 176/32/147 177/34/147 33/246/147
f 29/248/148 175/30/148 176/32/148 31/247/148
f 27/249/149 174/28/149 175/30/149 29/248/149
f 25/250/150 173/26/150 174/28/150 27/249/150
f 23/251/151 172/24/151 173/26/151 25/250/151
f 21/252/152 171/22/152 172/24/152 23/251/152
f 19/253/153 170/20/153 171/22/153 21/252/153
f 17/254/154 169/18/154 170/20/154 19/253/154
f 15/255/155 168/16/155 169/18/155 17/254/155
f 13/256/156 167/14/156 168/16/156 15/255/156
f 11/257/157 166/12/157 167/14/157 13/256/157
f 9/258/158 165/10/158 166/12/158 11/257/158
f 7/259/159 164/8/159 165/10/159 9/258/159
f 5/260/160 163/6/160 164/8/160 7/259/160
f 3/261/161 162/4/161 163/6/161 5/260/161
f 1/262/162 161/1/162 162/4/162 3/261/162
